<?xml version="1.0" encoding="UTF-8"?>
<svg version="1.1" xmlns="http://www.w3.org/2000/svg" width="32" height="32">
<path d="M0 0 C3 1.5 3 1.5 5 3 C4.690625 4.11375 4.690625 4.11375 4.375 5.25 C3.95591249 8.32330841 4.38050989 9.42786866 6 12 C5.01 12.33 4.02 12.66 3 13 C1.95594779 17.69823495 1.81526184 21.26104735 3 26 C-2.61 26 -8.22 26 -14 26 C-13.45219355 23.80877418 -12.89778433 21.61901433 -12.3125 19.4375 C-11.69639239 16.74474036 -11.69639239 16.74474036 -14 14 C-14.67226891 7.05322129 -14.67226891 7.05322129 -12.125 3.0625 C-8.45909401 -0.49558522 -4.93422468 -0.56606784 0 0 Z " fill="#070709" transform="translate(21,3)"/>
<path d="M0 0 C0 0.99 0 1.98 0 3 C-0.66 3 -1.32 3 -2 3 C-2 3.66 -2 4.32 -2 5 C-1.01 5.33 -0.02 5.66 1 6 C0.67 8.31 0.34 10.62 0 13 C-2.31 13 -4.62 13 -7 13 C-5.68 13.33 -4.36 13.66 -3 14 C-3 14.66 -3 15.32 -3 16 C-4.98 16 -6.96 16 -9 16 C-9.99354898 11.52902957 -10.56122681 7.39982102 -9 3 C-6.56160012 -0.59343141 -4.11612845 -0.27440856 0 0 Z " fill="#DFDFDF" transform="translate(23,8)"/>
<path d="M0 0 C2.31 0.33 4.62 0.66 7 1 C8 5 8 5 9 9 C3.39 9 -2.22 9 -8 9 C-7 5 -7 5 -4 3 C-1.73828125 3.0234375 -1.73828125 3.0234375 0.6875 3.375 C1.49574219 3.48585938 2.30398437 3.59671875 3.13671875 3.7109375 C3.75160156 3.80632813 4.36648437 3.90171875 5 4 C5 3.34 5 2.68 5 2 C3.35 1.67 1.7 1.34 0 1 C0 0.67 0 0.34 0 0 Z " fill="#02028E" transform="translate(15,20)"/>
<path d="M0 0 C0 0.99 0 1.98 0 3 C-0.66 3 -1.32 3 -2 3 C-2 3.66 -2 4.32 -2 5 C-1.01 5.33 -0.02 5.66 1 6 C0.67 7.98 0.34 9.96 0 12 C-1.12894876 11.06725891 -2.25300876 10.12859878 -3.375 9.1875 C-4.00148438 8.66542969 -4.62796875 8.14335937 -5.2734375 7.60546875 C-7 6 -7 6 -9 3 C-6.38997624 -0.48003168 -4.1689578 -0.27793052 0 0 Z " fill="#E3E3E3" transform="translate(23,8)"/>
<path d="M0 0 C3.21043882 1.38188453 5.04936365 2.92421903 7.25 5.625 C8.03117187 6.57246094 8.03117187 6.57246094 8.828125 7.5390625 C9.40820312 8.26222656 9.40820312 8.26222656 10 9 C5.47723524 8.11511124 3.30690825 6.15659424 0 3 C0 2.01 0 1.02 0 0 Z " fill="#D0D0D0" transform="translate(13,12)"/>
</svg>
