<?xml version="1.0" encoding="UTF-8"?>
<svg version="1.1" xmlns="http://www.w3.org/2000/svg" width="32" height="32">
<path d="M0 0 C1.39895508 -0.01643555 1.39895508 -0.01643555 2.82617188 -0.03320312 C6.99777046 0.011397 9.80468214 0.23816102 13.5546875 2.16015625 C16.09612176 5.40285764 16.07357914 7.47669357 16 11.5625 C16.00193359 13.3878125 16.00193359 13.3878125 16.00390625 15.25 C15.34633991 19.09562934 14.54964669 20.27916134 11.4375 22.5625 C7.38340043 23.82568855 3.33410697 23.74636205 -0.875 23.75 C-1.60912109 23.76224609 -2.34324219 23.77449219 -3.09960938 23.78710938 C-7.96451004 23.80005942 -11.94618574 23.10533687 -16.5625 21.5625 C-16.72526553 18.99743576 -16.84363984 16.44274578 -16.9375 13.875 C-16.98777344 13.15376953 -17.03804687 12.43253906 -17.08984375 11.68945312 C-17.20451296 7.50402708 -16.88758789 5.97302421 -14.19921875 2.578125 C-9.85797176 -0.45472194 -5.10797995 -0.13115563 0 0 Z " fill="#020225" transform="translate(16.5625,3.4375)"/>
<path d="M0 0 C1.39895508 -0.01643555 1.39895508 -0.01643555 2.82617188 -0.03320312 C6.99284085 0.0113443 9.8143726 0.24782843 13.5703125 2.14453125 C16.14222799 5.47510801 15.94242473 7.65612585 15.75 11.8125 C15.70488281 13.07578125 15.65976562 14.3390625 15.61328125 15.640625 C15.52626953 17.08695313 15.52626953 17.08695313 15.4375 18.5625 C13.4575 19.5525 13.4575 19.5525 11.4375 20.5625 C11.4375 15.9425 11.4375 11.3225 11.4375 6.5625 C9.7875 6.5625 8.1375 6.5625 6.4375 6.5625 C6.1075 7.2225 5.7775 7.8825 5.4375 8.5625 C5.4375 7.9025 5.4375 7.2425 5.4375 6.5625 C3.64616022 6.50858007 1.85436101 6.46974429 0.0625 6.4375 C-0.93523438 6.41429687 -1.93296875 6.39109375 -2.9609375 6.3671875 C-5.72512173 6.29033152 -5.72512173 6.29033152 -7.5625 8.5625 C-8.02412427 10.99502661 -8.02412427 10.99502661 -8.1875 13.6875 C-8.26226562 14.59757812 -8.33703125 15.50765625 -8.4140625 16.4453125 C-8.46304687 17.14398437 -8.51203125 17.84265625 -8.5625 18.5625 C-8.8925 18.5625 -9.2225 18.5625 -9.5625 18.5625 C-9.8925 15.2625 -10.2225 11.9625 -10.5625 8.5625 C-10.706875 9.284375 -10.85125 10.00625 -11 10.75 C-11.185625 11.678125 -11.37125 12.60625 -11.5625 13.5625 C-11.7275 14.449375 -11.8925 15.33625 -12.0625 16.25 C-12.5625 18.5625 -12.5625 18.5625 -13.5625 20.5625 C-14.5525 20.2325 -15.5425 19.9025 -16.5625 19.5625 C-16.72521111 17.33576829 -16.84121548 15.10559147 -16.9375 12.875 C-17.00710937 11.63363281 -17.07671875 10.39226563 -17.1484375 9.11328125 C-16.5625 5.5625 -16.5625 5.5625 -14.19921875 2.640625 C-9.85984382 -0.46268167 -5.14206715 -0.13203087 0 0 Z " fill="#7C757E" transform="translate(16.5625,3.4375)"/>
<path d="M0 0 C1.9375 1.0625 1.9375 1.0625 3 3 C3.36528977 6.4093712 3.6140629 8.88023824 1.9375 11.9375 C-1.11976176 13.6140629 -3.5906288 13.36528977 -7 13 C-8.9375 11.9375 -8.9375 11.9375 -10 10 C-10.36528977 6.5906288 -10.6140629 4.11976176 -8.9375 1.0625 C-5.88023824 -0.6140629 -3.4093712 -0.36528977 0 0 Z " fill="#A0A0A0" transform="translate(19,11)"/>
<path d="M0 0 C1.65 0 3.3 0 5 0 C5.19389096 2.4788213 5.38040123 4.95780931 5.5625 7.4375 C5.61857422 8.14455078 5.67464844 8.85160156 5.73242188 9.58007812 C5.86190993 11.38427837 5.93521608 13.19231952 6 15 C5 16 5 16 2.4375 16.0625 C1.633125 16.041875 0.82875 16.02125 0 16 C0 10.66666667 0 5.33333333 0 0 Z " fill="#00004C" transform="translate(23,10)"/>
<path d="M0 0 C2.5 0.25 2.5 0.25 4.5 2.25 C4.75 4.75 4.75 4.75 4.5 7.25 C2.5 9.25 2.5 9.25 0 9.5 C-2.5 9.25 -2.5 9.25 -4.5 7.25 C-4.75 4.75 -4.75 4.75 -4.5 2.25 C-2.5 0.25 -2.5 0.25 0 0 Z " fill="#064466" transform="translate(15.5,12.75)"/>
<path d="M0 0 C3.39083773 0.60550674 5.55632551 1.54114741 8 4 C8.49609375 7.28515625 8.49609375 7.28515625 8.4375 11.0625 C8.43621094 12.31160156 8.43492188 13.56070312 8.43359375 14.84765625 C8.21896484 16.40806641 8.21896484 16.40806641 8 18 C7.01 18.66 6.02 19.32 5 20 C4.67 15.05 4.34 10.1 4 5 C1.69 4.67 -0.62 4.34 -3 4 C-3 3.34 -3 2.68 -3 2 C-0.525 2.495 -0.525 2.495 2 3 C2 2.34 2 1.68 2 1 C1.34 0.67 0.68 0.34 0 0 Z " fill="#000028" transform="translate(24,4)"/>
<path d="M0 0 C2.475 0.495 2.475 0.495 5 1 C5.05410687 2.77049689 5.09284119 4.54146849 5.125 6.3125 C5.14820313 7.29863281 5.17140625 8.28476562 5.1953125 9.30078125 C5 12 5 12 3 15 C2.01 14.67 1.02 14.34 0 14 C0 9.38 0 4.76 0 0 Z " fill="#838383" transform="translate(0,9)"/>
<path d="M0 0 C0.33 0 0.66 0 1 0 C1 5 1 10 1 15 C-4.61 15 -10.22 15 -16 15 C-11.92461092 12.96230546 -9.42798723 12.63641111 -5.0234375 12.34375 C-2.77713524 12.16292808 -2.77713524 12.16292808 -1 10 C-0.53837573 7.56747339 -0.53837573 7.56747339 -0.375 4.875 C-0.30023438 3.96492187 -0.22546875 3.05484375 -0.1484375 2.1171875 C-0.09945313 1.41851562 -0.05046875 0.71984375 0 0 Z " fill="#3E247D" transform="translate(23,12)"/>
<path d="M0 0 C-1 2 -1 2 -4 3.0625 C-4.99 3.371875 -5.98 3.68125 -7 4 C-8.39345165 5.1621539 -8.39345165 5.1621539 -8.0625 8.375 C-8.041875 9.57125 -8.02125 10.7675 -8 12 C-8 12.99 -8 13.98 -8 15 C-8.66 14.67 -9.32 14.34 -10 14 C-10.08114106 12.22992286 -10.13925505 10.45877902 -10.1875 8.6875 C-10.22230469 7.70136719 -10.25710937 6.71523437 -10.29296875 5.69921875 C-10 3 -10 3 -8.71875 1.15625 C-5.95246295 -0.70470674 -3.22735087 -0.18268024 0 0 Z " fill="#07075F" transform="translate(18,9)"/>
<path d="M0 0 C3.5 0.125 3.5 0.125 4.5 1.125 C4.57313567 3.65549402 4.59247527 6.15804837 4.5625 8.6875 C4.55798828 9.39841797 4.55347656 10.10933594 4.54882812 10.84179688 C4.53700864 12.60290013 4.51907263 14.36396036 4.5 16.125 C4.17 16.125 3.84 16.125 3.5 16.125 C3.5 11.505 3.5 6.885 3.5 2.125 C1.85 2.125 0.2 2.125 -1.5 2.125 C-1.83 2.785 -2.16 3.445 -2.5 4.125 C-2.5 3.465 -2.5 2.805 -2.5 2.125 C-3.16 1.795 -3.82 1.465 -4.5 1.125 C-3.5 0.125 -3.5 0.125 0 0 Z " fill="#8C8C8C" transform="translate(24.5,7.875)"/>
<path d="M0 0 C0.99 0 1.98 0 3 0 C3.33 4.95 3.66 9.9 4 15 C2.35 15 0.7 15 -1 15 C-0.67 14.319375 -0.34 13.63875 0 12.9375 C1.5320775 8.43702233 1.49937498 4.49812495 0 0 Z " fill="#000004" transform="translate(25,10)"/>
<path d="M0 0 C0.125 2.375 0.125 2.375 0 5 C-2 7 -2 7 -4.625 7.125 C-5.40875 7.08375 -6.1925 7.0425 -7 7 C-5.52694611 2.33532934 -5.52694611 2.33532934 -2.9375 0.6875 C-1 0 -1 0 0 0 Z " fill="#040004" transform="translate(20,15)"/>
<path d="M0 0 C0.8353125 0.37125 0.8353125 0.37125 1.6875 0.75 C1.6875 1.74 1.6875 2.73 1.6875 3.75 C-1.2825 4.41 -4.2525 5.07 -7.3125 5.75 C-7.3125 5.09 -7.3125 4.43 -7.3125 3.75 C-3.10958131 -0.33617095 -3.10958131 -0.33617095 0 0 Z " fill="#2C2C3B" transform="translate(8.3125,4.25)"/>
<path d="M0 0 C0.33 0 0.66 0 1 0 C1.36 5.4 1.36 5.4 -0.125 7.875 C-2.78034983 9.4682099 -4.96789518 9.20214032 -8 9 C-8 8.67 -8 8.34 -8 8 C-6.35 8 -4.7 8 -3 8 C-2.67 7.01 -2.34 6.02 -2 5 C-1.34 5 -0.68 5 0 5 C0 3.35 0 1.7 0 0 Z " fill="#B2B2B2" transform="translate(21,15)"/>
<path d="M0 0 C3.375 -0.1875 3.375 -0.1875 7 0 C9 3 9 3 8.625 5.6875 C8.41875 6.450625 8.2125 7.21375 8 8 C7.67 8 7.34 8 7 8 C6.34 6.02 5.68 4.04 5 2 C3.35 1.67 1.7 1.34 0 1 C0 0.67 0 0.34 0 0 Z " fill="#919191" transform="translate(13,12)"/>
<path d="M0 0 C0 0.66 0 1.32 0 2 C-2.97 2 -5.94 2 -9 2 C-9 1.34 -9 0.68 -9 0 C-3.375 -1.125 -3.375 -1.125 0 0 Z " fill="#250043" transform="translate(20,6)"/>
</svg>
