<?xml version="1.0" encoding="UTF-8"?>
<svg version="1.1" xmlns="http://www.w3.org/2000/svg" width="32" height="32">
<path d="M0 0 C4.39656173 -0.02465504 8.7930872 -0.04283842 13.18969727 -0.05493164 C14.68644918 -0.05997121 16.18319616 -0.06680287 17.67993164 -0.07543945 C19.82699807 -0.08752159 21.97399962 -0.09323191 24.12109375 -0.09765625 C26.06133423 -0.10551147 26.06133423 -0.10551147 28.04077148 -0.11352539 C31 0 31 0 32 1 C32.08713831 2.70772358 32.10700007 4.41898649 32.09765625 6.12890625 C32.09443359 7.16337891 32.09121094 8.19785156 32.08789062 9.26367188 C32.07532227 10.8965918 32.07532227 10.8965918 32.0625 12.5625 C32.05798828 13.65498047 32.05347656 14.74746094 32.04882812 15.87304688 C32.03699826 18.58208495 32.02051543 21.29101599 32 24 C27.60343827 24.02465504 23.2069128 24.04283842 18.81030273 24.05493164 C17.31355082 24.05997121 15.81680384 24.06680287 14.32006836 24.07543945 C12.17300193 24.08752159 10.02600038 24.09323191 7.87890625 24.09765625 C5.93866577 24.10551147 5.93866577 24.10551147 3.95922852 24.11352539 C1 24 1 24 0 23 C-0.08713831 21.29227642 -0.10700007 19.58101351 -0.09765625 17.87109375 C-0.09443359 16.83662109 -0.09121094 15.80214844 -0.08789062 14.73632812 C-0.07951172 13.64771484 -0.07113281 12.55910156 -0.0625 11.4375 C-0.05798828 10.34501953 -0.05347656 9.25253906 -0.04882812 8.12695312 C-0.03699826 5.41791505 -0.02051543 2.70898401 0 0 Z " fill="#CDCDD2" transform="translate(0,4)"/>
<path d="M0 0 C4.39656173 -0.02465504 8.7930872 -0.04283842 13.18969727 -0.05493164 C14.68644918 -0.05997121 16.18319616 -0.06680287 17.67993164 -0.07543945 C19.82699807 -0.08752159 21.97399962 -0.09323191 24.12109375 -0.09765625 C26.06133423 -0.10551147 26.06133423 -0.10551147 28.04077148 -0.11352539 C31 0 31 0 32 1 C32.08713831 2.70772358 32.10700007 4.41898649 32.09765625 6.12890625 C32.09443359 7.16337891 32.09121094 8.19785156 32.08789062 9.26367188 C32.07532227 10.8965918 32.07532227 10.8965918 32.0625 12.5625 C32.05798828 13.65498047 32.05347656 14.74746094 32.04882812 15.87304688 C32.03699826 18.58208495 32.02051543 21.29101599 32 24 C27.60343827 24.02465504 23.2069128 24.04283842 18.81030273 24.05493164 C17.31355082 24.05997121 15.81680384 24.06680287 14.32006836 24.07543945 C12.17300193 24.08752159 10.02600038 24.09323191 7.87890625 24.09765625 C5.93866577 24.10551147 5.93866577 24.10551147 3.95922852 24.11352539 C1 24 1 24 0 23 C-0.08713831 21.29227642 -0.10700007 19.58101351 -0.09765625 17.87109375 C-0.09443359 16.83662109 -0.09121094 15.80214844 -0.08789062 14.73632812 C-0.07951172 13.64771484 -0.07113281 12.55910156 -0.0625 11.4375 C-0.05798828 10.34501953 -0.05347656 9.25253906 -0.04882812 8.12695312 C-0.03699826 5.41791505 -0.02051543 2.70898401 0 0 Z M2 1 C0.49818464 4.00363072 0.89701457 7.08633767 0.9375 10.375 C0.94201172 11.04789063 0.94652344 11.72078125 0.95117188 12.4140625 C0.96400066 14.27606861 0.98182467 16.1380384 1 18 C1 19.32 1 20.64 1 22 C5.45821166 22.08674429 9.91620804 22.14030513 14.375 22.1875 C15.64601563 22.21263672 16.91703125 22.23777344 18.2265625 22.26367188 C20.04414062 22.27817383 20.04414062 22.27817383 21.8984375 22.29296875 C23.57945557 22.31653442 23.57945557 22.31653442 25.29443359 22.34057617 C26.18727051 22.22818604 27.08010742 22.1157959 28 22 C30.58837761 18.11743359 30.25793118 14.86776783 30.1875 10.375 C30.18685547 9.58609375 30.18621094 8.7971875 30.18554688 7.984375 C30.51636636 4.18456577 30.51636636 4.18456577 29 1 C27.00035018 0.91241997 24.9976389 0.89303424 22.99609375 0.90234375 C21.17368164 0.90717773 21.17368164 0.90717773 19.31445312 0.91210938 C18.03505859 0.92048828 16.75566406 0.92886719 15.4375 0.9375 C13.51260742 0.94426758 13.51260742 0.94426758 11.54882812 0.95117188 C8.36583978 0.96300455 5.18294238 0.97948932 2 1 Z " fill="#015801" transform="translate(0,4)"/>
<path d="M0 0 C0.99 0.33 1.98 0.66 3 1 C3.05402274 3.10388569 3.09280256 5.20816714 3.125 7.3125 C3.14820312 8.48425781 3.17140625 9.65601563 3.1953125 10.86328125 C3 14 3 14 1 17 C-1.70556641 17.34057617 -1.70556641 17.34057617 -5.1015625 17.29296875 C-6.91914062 17.2784668 -6.91914062 17.2784668 -8.7734375 17.26367188 C-10.04445313 17.23853516 -11.31546875 17.21339844 -12.625 17.1875 C-13.90375 17.17396484 -15.1825 17.16042969 -16.5 17.14648438 C-19.66708282 17.11103196 -22.83333541 17.06161441 -26 17 C-26 16.34 -26 15.68 -26 15 C-25.34 15 -24.68 15 -24 15 C-23.67 14.01 -23.34 13.02 -23 12 C-23 12.66 -23 13.32 -23 14 C-15.41 14 -7.82 14 0 14 C0 9.38 0 4.76 0 0 Z " fill="#A4BAA4" transform="translate(27,9)"/>
<path d="M0 0 C8.91 0 17.82 0 27 0 C26.01 0.495 26.01 0.495 25 1 C25 1.66 25 2.32 25 3 C17.41 3.33 9.82 3.66 2 4 C1.67 7.63 1.34 11.26 1 15 C-1 13 -1 13 -1.23046875 10.46875 C-1.21628906 9.4890625 -1.20210938 8.509375 -1.1875 7.5 C-1.18105469 6.5203125 -1.17460937 5.540625 -1.16796875 4.53125 C-1 2 -1 2 0 0 Z " fill="#99B599" transform="translate(2,5)"/>
<path d="M0 0 C0.99 0.33 1.98 0.66 3 1 C3.0810206 3.10353495 3.13919907 5.20795952 3.1875 7.3125 C3.22230469 8.48425781 3.25710937 9.65601563 3.29296875 10.86328125 C3 14 3 14 1.48828125 15.91796875 C0.75158203 16.45357422 0.75158203 16.45357422 0 17 C-0.66 16.01 -1.32 15.02 -2 14 C-1.34 14 -0.68 14 0 14 C0 9.38 0 4.76 0 0 Z " fill="#AFBFAF" transform="translate(27,9)"/>
<path d="M0 0 C4.29 0.66 8.58 1.32 13 2 C13 2.33 13 2.66 13 3 C9.37 3.33 5.74 3.66 2 4 C1.67 7.63 1.34 11.26 1 15 C-1 13 -1 13 -1.23046875 10.46875 C-1.21628906 9.4890625 -1.20210938 8.509375 -1.1875 7.5 C-1.18105469 6.5203125 -1.17460937 5.540625 -1.16796875 4.53125 C-1 2 -1 2 0 0 Z " fill="#A8BCA8" transform="translate(2,5)"/>
<path d="M0 0 C0 0.99 0 1.98 0 3 C-5.94 3 -11.88 3 -18 3 C-17.67 2.34 -17.34 1.68 -17 1 C-14.70703125 0.5859375 -14.70703125 0.5859375 -11.8125 0.375 C-10.8225 0.30152344 -9.8325 0.22804688 -8.8125 0.15234375 C-5.86903353 -0.00709402 -2.94718731 -0.07965371 0 0 Z " fill="#FFFFEA" transform="translate(27,20)"/>
<path d="M0 0 C0.33 0.66 0.66 1.32 1 2 C2.65 2 4.3 2 6 2 C6 2.99 6 3.98 6 5 C3.36 5 0.72 5 -2 5 C-2 4.34 -2 3.68 -2 3 C-1.34 3 -0.68 3 0 3 C0 2.01 0 1.02 0 0 Z " fill="#ADBDAD" transform="translate(3,21)"/>
<path d="M0 0 C1.32 0.66 2.64 1.32 4 2 C3.34 3.32 2.68 4.64 2 6 C0.68 5.34 -0.64 4.68 -2 4 C-1.34 2.68 -0.68 1.36 0 0 Z " fill="#808030" transform="translate(7,9)"/>
</svg>
