<?xml version="1.0" encoding="UTF-8"?>
<svg version="1.1" xmlns="http://www.w3.org/2000/svg" width="32" height="32">
<path d="M0 0 C3.52935745 1.93115785 6.23995827 4.10852771 9 7 C9.99 7.66 10.98 8.32 12 9 C11.53472212 13.83889 10.77246399 18.55833126 9.75 23.3125 C9.43289062 24.82263672 9.43289062 24.82263672 9.109375 26.36328125 C8 29 8 29 5.703125 30.91796875 C2.48638551 32.20559424 1.26175491 32.05039565 -2 31 C-2.90878906 30.72027344 -3.81757813 30.44054687 -4.75390625 30.15234375 C-11.97847156 27.02739269 -11.97847156 27.02739269 -13.89160156 23.23046875 C-16.06225032 17.07979965 -17.2671959 10.52721418 -17 4 C-11.13212698 0.95739917 -6.64539881 -0.87152771 0 0 Z " fill="#A5B6A5" transform="translate(18,0)"/>
<path d="M0 0 C3.465 2.475 3.465 2.475 7 5 C6.53472212 9.83889 5.77246399 14.55833126 4.75 19.3125 C4.43289062 20.82263672 4.43289062 20.82263672 4.109375 22.36328125 C3 25 3 25 0.703125 26.91796875 C-2.5334818 28.21354691 -3.73068567 28.12648656 -7 27 C-8.96876871 26.04085627 -10.90684171 25.0166077 -12.8125 23.9375 C-13.78832031 23.38964844 -14.76414062 22.84179688 -15.76953125 22.27734375 C-16.50558594 21.85582031 -17.24164063 21.43429688 -18 21 C-17.67 19.68 -17.34 18.36 -17 17 C-17 17.99 -17 18.98 -17 20 C-16.13375 20.268125 -15.2675 20.53625 -14.375 20.8125 C-11.08004181 21.97183714 -8.10580577 23.41229817 -5 25 C-4.72351286 22.5837428 -4.47821663 20.17088623 -4.25 17.75 C-4.16878906 17.06808594 -4.08757813 16.38617187 -4.00390625 15.68359375 C-3.68576556 12.04265034 -3.66133454 10.42399849 -5.984375 7.515625 C-6.64953125 7.01546875 -7.3146875 6.5153125 -8 6 C-2.25 1.125 -2.25 1.125 0 0 Z " fill="#676767" transform="translate(23,4)"/>
<path d="M0 0 C2.31 0.33 4.62 0.66 7 1 C6.01 1.495 6.01 1.495 5 2 C5 7.28 5 12.56 5 18 C0.71 16.02 -3.58 14.04 -8 12 C-6.93940067 8.818202 -5.52448631 5.9826906 -4 3 C-1.03824877 3.61277612 0.38058783 4.25372522 3 6 C3 5.34 3 4.68 3 4 C2.34 4 1.68 4 1 4 C0.67 2.68 0.34 1.36 0 0 Z " fill="#C2C3C2" transform="translate(14,12)"/>
<path d="M0 0 C3 1.5 3 1.5 5 3 C3.27592413 7.38855677 0.17026127 9.91486937 -4 12 C-6.6015625 10.78515625 -6.6015625 10.78515625 -9.625 9.0625 C-10.62789062 8.49660156 -11.63078125 7.93070312 -12.6640625 7.34765625 C-13.43492188 6.90292969 -14.20578125 6.45820312 -15 6 C-12.13173665 0.26347331 -5.81387551 -0.78046189 0 0 Z " fill="#8B897F" transform="translate(18,0)"/>
<path d="M0 0 C6.625 0.75 6.625 0.75 10 3 C9.34 4.32 8.68 5.64 8 7 C8 6.34 8 5.68 8 5 C7.01 5.33 6.02 5.66 5 6 C4.01 5.34 3.02 4.68 2 4 C0.35 5.32 -1.3 6.64 -3 8 C-2.625 5.0625 -2.625 5.0625 -2 2 C-1.34 1.67 -0.68 1.34 0 1 C0 0.67 0 0.34 0 0 Z " fill="#6A6A0C" transform="translate(13,0)"/>
<path d="M0 0 C0.33 0.66 0.66 1.32 1 2 C2.32 2 3.64 2 5 2 C4.1875 3.9375 4.1875 3.9375 3 6 C2.01 6.33 1.02 6.66 0 7 C-2.1875 5.5625 -2.1875 5.5625 -4 4 C-2.68 2.68 -1.36 1.36 0 0 Z " fill="#D8D86C" transform="translate(15,3)"/>
<path d="M0 0 C0.33 1.32 0.66 2.64 1 4 C-1.8125 6.0625 -1.8125 6.0625 -5 8 C-5.99 7.67 -6.98 7.34 -8 7 C-3.375 1.125 -3.375 1.125 0 0 Z " fill="#444404" transform="translate(23,4)"/>
<path d="M0 0 C2.475 0.99 2.475 0.99 5 2 C5 2.99 5 3.98 5 5 C3.35 5.33 1.7 5.66 0 6 C-1.125 2.25 -1.125 2.25 0 0 Z " fill="#CDCDCD" transform="translate(24,6)"/>
<path d="M0 0 C0.33 1.32 0.66 2.64 1 4 C-0.65 4.66 -2.3 5.32 -4 6 C-4.66 5.01 -5.32 4.02 -6 3 C-5.01 2.34 -4.02 1.68 -3 1 C-3 1.66 -3 2.32 -3 3 C-2.01 3 -1.02 3 0 3 C0 2.01 0 1.02 0 0 Z " fill="#008000" transform="translate(16,19)"/>
<path d="M0 0 C1.32 0 2.64 0 4 0 C3.38722388 2.96175123 2.74627478 4.38058783 1 7 C0 2.25 0 2.25 0 0 Z " fill="#008000" transform="translate(6,15)"/>
<path d="M0 0 C2.31 0.33 4.62 0.66 7 1 C7.33 1.99 7.66 2.98 8 4 C7.34 4.66 6.68 5.32 6 6 C6 5.01 6 4.02 6 3 C4.02 2.34 2.04 1.68 0 1 C0 0.67 0 0.34 0 0 Z " fill="#DBDB63" transform="translate(15,1)"/>
</svg>
