<?xml version="1.0" encoding="UTF-8"?>
<svg version="1.1" xmlns="http://www.w3.org/2000/svg" width="32" height="32">
<path d="M0 0 C7.26 0 14.52 0 22 0 C21.34 1.65 20.68 3.3 20 5 C20.1762044 7.03871245 20.1762044 7.03871245 21 9 C21.33 9.886875 21.66 10.77375 22 11.6875 C22.79663217 13.91942029 22.79663217 13.91942029 24 15 C24.07319621 17.69654854 24.09242537 20.36691458 24.0625 23.0625 C24.05798828 23.82111328 24.05347656 24.57972656 24.04882812 25.36132812 C24.0370068 27.24091871 24.01907078 29.12046899 24 31 C13.31485445 31.67842194 2.71092709 32.15498126 -8 32 C-8.37559279 13.82548214 -8.37559279 13.82548214 -6 6 C-5 5 -5 5 -3.15234375 4.90234375 C-1.1015625 4.93489583 0.94921875 4.96744792 3 5 C2.01 3.35 1.02 1.7 0 0 Z " fill="#402D13" transform="translate(8,0)"/>
<path d="M0 0 C2.05078125 0.03255208 4.1015625 0.06510417 6.15234375 0.09765625 C6.15234375 0.75765625 6.15234375 1.41765625 6.15234375 2.09765625 C5.16234375 2.59265625 5.16234375 2.59265625 4.15234375 3.09765625 C4.81234375 3.42765625 5.47234375 3.75765625 6.15234375 4.09765625 C6.56640625 6.3828125 6.56640625 6.3828125 6.77734375 9.16015625 C6.85210938 10.07925781 6.926875 10.99835937 7.00390625 11.9453125 C7.05289062 12.65558594 7.101875 13.36585937 7.15234375 14.09765625 C6.55421875 14.24203125 5.95609375 14.38640625 5.33984375 14.53515625 C3.59083971 14.98490015 1.86557352 15.52657966 0.15234375 16.09765625 C-0.17765625 17.08765625 -0.50765625 18.07765625 -0.84765625 19.09765625 C-1.50765625 19.09765625 -2.16765625 19.09765625 -2.84765625 19.09765625 C-2.84765625 19.75765625 -2.84765625 20.41765625 -2.84765625 21.09765625 C-2.18765625 21.09765625 -1.52765625 21.09765625 -0.84765625 21.09765625 C-0.51765625 22.41765625 -0.18765625 23.73765625 0.15234375 25.09765625 C-1.82765625 24.76765625 -3.80765625 24.43765625 -5.84765625 24.09765625 C-5.84765625 19.80765625 -5.84765625 15.51765625 -5.84765625 11.09765625 C-6.17765625 16.04765625 -6.50765625 20.99765625 -6.84765625 26.09765625 C-10.80765625 26.09765625 -14.76765625 26.09765625 -18.84765625 26.09765625 C-18.84765625 21.14765625 -18.84765625 16.19765625 -18.84765625 11.09765625 C-17.52765625 11.42765625 -16.20765625 11.75765625 -14.84765625 12.09765625 C-15.83765625 12.09765625 -16.82765625 12.09765625 -17.84765625 12.09765625 C-17.84765625 16.38765625 -17.84765625 20.67765625 -17.84765625 25.09765625 C-14.54765625 25.09765625 -11.24765625 25.09765625 -7.84765625 25.09765625 C-7.84765625 20.80765625 -7.84765625 16.51765625 -7.84765625 12.09765625 C-9.82765625 12.09765625 -11.80765625 12.09765625 -13.84765625 12.09765625 C-14.17765625 10.44765625 -14.50765625 8.79765625 -14.84765625 7.09765625 C-15.17765625 8.08765625 -15.50765625 9.07765625 -15.84765625 10.09765625 C-16.50765625 10.09765625 -17.16765625 10.09765625 -17.84765625 10.09765625 C-18.03515625 7.72265625 -18.03515625 7.72265625 -17.84765625 5.09765625 C-14.42671383 2.81702797 -13.16578403 2.87840618 -9.16015625 2.97265625 C-7.66935547 2.99972656 -7.66935547 2.99972656 -6.1484375 3.02734375 C-5.38917969 3.05054688 -4.62992188 3.07375 -3.84765625 3.09765625 C-3.84765625 4.74765625 -3.84765625 6.39765625 -3.84765625 8.09765625 C-3.51765625 8.09765625 -3.18765625 8.09765625 -2.84765625 8.09765625 C-2.86828125 6.96328125 -2.88890625 5.82890625 -2.91015625 4.66015625 C-2.83102423 0.1496313 -2.83102423 0.1496313 0 0 Z " fill="#AFAFB4" transform="translate(19.84765625,4.90234375)"/>
<path d="M0 0 C1.49080078 0.02707031 1.49080078 0.02707031 3.01171875 0.0546875 C3.77097656 0.07789063 4.53023437 0.10109375 5.3125 0.125 C5.27125 0.888125 5.23 1.65125 5.1875 2.4375 C5.09169176 5.35218416 5.09169176 5.35218416 7.3125 8.125 C5.9925 8.125 4.6725 8.125 3.3125 8.125 C2.9825 13.075 2.6525 18.025 2.3125 23.125 C-1.6475 23.125 -5.6075 23.125 -9.6875 23.125 C-9.6875 18.175 -9.6875 13.225 -9.6875 8.125 C-8.3675 8.455 -7.0475 8.785 -5.6875 9.125 C-6.6775 9.125 -7.6675 9.125 -8.6875 9.125 C-8.6875 13.415 -8.6875 17.705 -8.6875 22.125 C-5.3875 22.125 -2.0875 22.125 1.3125 22.125 C1.3125 17.835 1.3125 13.545 1.3125 9.125 C-0.6675 9.125 -2.6475 9.125 -4.6875 9.125 C-5.0175 7.475 -5.3475 5.825 -5.6875 4.125 C-6.0175 5.115 -6.3475 6.105 -6.6875 7.125 C-7.3475 7.125 -8.0075 7.125 -8.6875 7.125 C-8.875 4.75 -8.875 4.75 -8.6875 2.125 C-5.26655758 -0.15562828 -4.00562778 -0.09425007 0 0 Z " fill="#D5BABA" transform="translate(10.6875,7.875)"/>
<path d="M0 0 C3.3 0 6.6 0 10 0 C10 4.29 10 8.58 10 13 C6.7 13 3.4 13 0 13 C0 8.71 0 4.42 0 0 Z " fill="#0303B0" transform="translate(2,17)"/>
<path d="M0 0 C4.95 0 9.9 0 15 0 C15.33 0.99 15.66 1.98 16 3 C13.36 3 10.72 3 8 3 C8 6.63 8 10.26 8 14 C7.01 13.34 6.02 12.68 5 12 C5.33 10.35 5.66 8.7 6 7 C5.01 7.66 4.02 8.32 3 9 C0.30078125 9.1953125 0.30078125 9.1953125 -2.6875 9.125 C-4.17830078 9.09792969 -4.17830078 9.09792969 -5.69921875 9.0703125 C-6.45847656 9.04710937 -7.21773438 9.02390625 -8 9 C-7.67 7.35 -7.34 5.7 -7 4 C-4.36 4 -1.72 4 1 4 C0.67 2.68 0.34 1.36 0 0 Z " fill="#752A00" transform="translate(10,1)"/>
<path d="M0 0 C0.33 0 0.66 0 1 0 C1 1.65 1 3.3 1 5 C1.66 3.68 2.32 2.36 3 1 C3.66 1.33 4.32 1.66 5 2 C5 3.65 5 5.3 5 7 C3.35 6.67 1.7 6.34 0 6 C0 10.95 0 15.9 0 21 C3.96 21 7.92 21 12 21 C12 15.72 12 10.44 12 5 C14 7 14 7 14.1953125 9.6015625 C14.17210937 10.59929688 14.14890625 11.59703125 14.125 12.625 C14.10695313 13.62789062 14.08890625 14.63078125 14.0703125 15.6640625 C14.03550781 16.82035156 14.03550781 16.82035156 14 18 C14.99 18 15.98 18 17 18 C17 18.66 17 19.32 17 20 C17.66 20.33 18.32 20.66 19 21 C14.48184719 21.88277755 10.22487306 22.10589503 5.625 22.0625 C3.75714844 22.04896484 3.75714844 22.04896484 1.8515625 22.03515625 C0.44003906 22.01775391 0.44003906 22.01775391 -1 22 C-1.0270817 19.27076612 -1.04687847 16.54180363 -1.0625 13.8125 C-1.07087891 13.04357422 -1.07925781 12.27464844 -1.08789062 11.48242188 C-1.10491934 7.51473211 -0.98604115 3.87428766 0 0 Z M18 16 C18.66 16 19.32 16 20 16 C19.67 17.32 19.34 18.64 19 20 C18.67 18.68 18.34 17.36 18 16 Z " fill="#000000" transform="translate(1,10)"/>
<path d="M0 0 C0 1.66666667 0 3.33333333 0 5 C0.66 5.33 1.32 5.66 2 6 C1.67 6.99 1.34 7.98 1 9 C0.34 9 -0.32 9 -1 9 C-1 9.66 -1 10.32 -1 11 C-0.34 11 0.32 11 1 11 C1.33 12.32 1.66 13.64 2 15 C-0.97 14.505 -0.97 14.505 -4 14 C-4 10.04 -4 6.08 -4 2 C-2.68 1.34 -1.36 0.68 0 0 Z " fill="#919183" transform="translate(18,15)"/>
<path d="M0 0 C2.05078125 0.03255208 4.1015625 0.06510417 6.15234375 0.09765625 C6.15234375 0.75765625 6.15234375 1.41765625 6.15234375 2.09765625 C4.17234375 2.42765625 2.19234375 2.75765625 0.15234375 3.09765625 C0.81234375 3.42765625 1.47234375 3.75765625 2.15234375 4.09765625 C1.40234375 9.84765625 1.40234375 9.84765625 -0.84765625 12.09765625 C-3.17254272 8.46502114 -3.08726838 5.33080392 -2.84765625 1.09765625 C-1.84765625 0.09765625 -1.84765625 0.09765625 0 0 Z " fill="#E5E5E5" transform="translate(19.84765625,4.90234375)"/>
<path d="M0 0 C7.26 0 14.52 0 22 0 C20 5 20 5 18 6 C15.30434798 5.83219837 12.67594446 5.38844355 10 5 C10 4.67 10 4.34 10 4 C11.32 3.67 12.64 3.34 14 3 C12.35 3 10.7 3 9 3 C9 2.34 9 1.68 9 1 C6.36 1.33 3.72 1.66 1 2 C0.67 1.34 0.34 0.68 0 0 Z " fill="#0A0500" transform="translate(8,0)"/>
<path d="M0 0 C0.144375 1.0725 0.28875 2.145 0.4375 3.25 C0.83749442 5.91662949 1.27591924 8.41399729 2 11 C0.35 11.33 -1.3 11.66 -3 12 C-3 9.03 -3 6.06 -3 3 C-3.99 2.67 -4.98 2.34 -6 2 C-3 0 -3 0 0 0 Z " fill="#67676C" transform="translate(29,6)"/>
<path d="M0 0 C3.63 0 7.26 0 11 0 C11 1.65 11 3.3 11 5 C9 4 9 4 8 2 C8 2.99 8 3.98 8 5 C7.34 5 6.68 5 6 5 C6 5.66 6 6.32 6 7 C5.34 7 4.68 7 4 7 C3.67 5.35 3.34 3.7 3 2 C2.67 2.99 2.34 3.98 2 5 C1.34 5 0.68 5 0 5 C0 3.35 0 1.7 0 0 Z " fill="#FFFFFF" transform="translate(2,10)"/>
<path d="M0 0 C0.33 0 0.66 0 1 0 C0.40380045 4.86896303 -0.56976822 9.32790951 -2 14 C-2.33 12.68 -2.66 11.36 -3 10 C-4.32 10 -5.64 10 -7 10 C-7 9.34 -7 8.68 -7 8 C-6.030625 7.195625 -5.06125 6.39125 -4.0625 5.5625 C-0.80624673 3.29315623 -0.80624673 3.29315623 0 0 Z " fill="#8D7100" transform="translate(24,16)"/>
<path d="M0 0 C0.33 0 0.66 0 1 0 C1 1.65 1 3.3 1 5 C1.66 3.68 2.32 2.36 3 1 C3.66 1.33 4.32 1.66 5 2 C5 3.65 5 5.3 5 7 C3.35 6.67 1.7 6.34 0 6 C0 10.95 0 15.9 0 21 C-0.33 21 -0.66 21 -1 21 C-1.02710123 18.4374282 -1.04688771 15.87514635 -1.0625 13.3125 C-1.07087891 12.59126953 -1.07925781 11.87003906 -1.08789062 11.12695312 C-1.10543632 7.28444618 -0.93524221 3.73360474 0 0 Z " fill="#3A0000" transform="translate(1,10)"/>
<path d="M0 0 C0.66 0 1.32 0 2 0 C2 0.99 2 1.98 2 3 C2.66 3 3.32 3 4 3 C4 3.66 4 4.32 4 5 C0.37 5 -3.26 5 -7 5 C-7 4.34 -7 3.68 -7 3 C-4.36 3 -1.72 3 1 3 C0.67 2.01 0.34 1.02 0 0 Z " fill="#6B6B6B" transform="translate(10,2)"/>
<path d="M0 0 C2.64 0 5.28 0 8 0 C8 0.66 8 1.32 8 2 C4.98968256 2.93423645 4.13349732 3.04449911 1 2 C1 2.66 1 3.32 1 4 C0.34 4 -0.32 4 -1 4 C-0.67 2.68 -0.34 1.36 0 0 Z " fill="#F3F3F3" transform="translate(18,5)"/>
<path d="M0 0 C3.63 0 7.26 0 11 0 C11 1.65 11 3.3 11 5 C10.01 5.495 10.01 5.495 9 6 C8.67 4.68 8.34 3.36 8 2 C5.36 1.67 2.72 1.34 0 1 C0 0.67 0 0.34 0 0 Z " fill="#FFFFFF" transform="translate(5,8)"/>
<path d="M0 0 C0.99 0.33 1.98 0.66 3 1 C2.67 2.32 2.34 3.64 2 5 C0.35 4.67 -1.3 4.34 -3 4 C-2.01 2.68 -1.02 1.36 0 0 Z " fill="#969696" transform="translate(20,16)"/>
</svg>
