<?xml version="1.0" encoding="UTF-8"?>
<svg version="1.1" xmlns="http://www.w3.org/2000/svg" width="48" height="48">
<path d="M0 0 C1.32 0 2.64 0 4 0 C7.94455422 3.62276164 9.37723148 8.27499907 9.625 13.5 C9.29034934 20.3938037 6.47153353 24.71383148 1.5 29.3125 C-0.94354461 30.96189261 -3.47200872 32.48320523 -6 34 C-2.04 35.98 1.92 37.96 6 40 C5 44 5 44 3.02734375 45.23046875 C-1.1586506 46.29452151 -5.13461542 46.3290623 -9.4375 46.3125 C-10.27087891 46.32861328 -11.10425781 46.34472656 -11.96289062 46.36132812 C-17.08130611 46.3653743 -20.52470345 45.75794698 -25 43 C-24.84765625 41.171875 -24.84765625 41.171875 -24 39 C-21.49609375 37.515625 -21.49609375 37.515625 -18.4375 36.25 C-17.42558594 35.82203125 -16.41367187 35.3940625 -15.37109375 34.953125 C-14.58863281 34.63859375 -13.80617188 34.3240625 -13 34 C-13.93972656 33.52820312 -13.93972656 33.52820312 -14.8984375 33.046875 C-15.71570312 32.61890625 -16.53296875 32.1909375 -17.375 31.75 C-18.18710937 31.33234375 -18.99921875 30.9146875 -19.8359375 30.484375 C-22.27102661 28.81409727 -23.0519169 27.77131983 -24 25 C-24 23.68 -24 22.36 -24 21 C-24.33 20.01 -24.66 19.02 -25 18 C-25.51263673 11.84835922 -24.93032673 7.86670552 -21 3 C-15.04746824 -2.66216435 -7.50180603 -1.88310641 0 0 Z " fill="#494900" transform="translate(33,2)"/>
<path d="M0 0 C2.89989338 1.35291393 3.89419605 2.43888709 6 5 C6.375 7.8125 6.375 7.8125 6 10 C5.34 10 4.68 10 4 10 C3.319375 9.01 3.319375 9.01 2.625 8 C2.08875 7.34 1.5525 6.68 1 6 C-0.32 6 -1.64 6 -3 6 C-2.01 7.65 -1.02 9.3 0 11 C-0.99 11.495 -0.99 11.495 -2 12 C-1.33735914 18.06264222 -1.33735914 18.06264222 0 24 C-0.66 24 -1.32 24 -2 24 C-2.33 24.33 -2.66 24.66 -3 25 C-3.66 25 -4.32 25 -5 25 C-5 25.66 -5 26.32 -5 27 C-7.86724686 26.42655063 -8.8614515 26.1385485 -11 24 C-10.34 23.34 -9.68 22.68 -9 22 C-14.55493924 20.97296252 -14.55493924 20.97296252 -20 22 C-21.45083502 17.64749493 -21.85342929 13.41886245 -20.31640625 9.0625 C-15.95388163 0.66328247 -9.07242144 -1.55911243 0 0 Z " fill="#81E2F3" transform="translate(29,1)"/>
<path d="M0 0 C2.0625 0.75 2.0625 0.75 4 2 C4.33 2.99 4.66 3.98 5 5 C5.66 5 6.32 5 7 5 C7.33 4.01 7.66 3.02 8 2 C10.5076544 5.76148161 10.49638344 9.64647314 10 14 C9.0555995 17.54150189 8.26754781 19.96954747 5.37109375 22.32421875 C0.11430187 25.3508565 -5.04739607 25.64495353 -11 25 C-11.99 24.67 -12.98 24.34 -14 24 C-14 23.34 -14 22.68 -14 22 C-15.32 21.34 -16.64 20.68 -18 20 C-17.67 17.69 -17.34 15.38 -17 13 C-16.34 13.66 -15.68 14.32 -15 15 C-13.845 15.165 -12.69 15.33 -11.5 15.5 C-8 16 -8 16 -6 18 C-6.66 18.66 -7.32 19.32 -8 20 C-6.68 20.66 -5.36 21.32 -4 22 C-4 21.34 -4 20.68 -4 20 C-3.34 20 -2.68 20 -2 20 C-2.33 19.01 -2.66 18.02 -3 17 C-2.34 17 -1.68 17 -1 17 C-1 17.66 -1 18.32 -1 19 C-0.34 19 0.32 19 1 19 C0.505 17.948125 0.01 16.89625 -0.5 15.8125 C-1.81035243 12.74466065 -2.4821556 10.37508923 -2 7 C-1.34 6.34 -0.68 5.68 0 5 C-0.66 3.68 -1.32 2.36 -2 1 C-1.34 0.67 -0.68 0.34 0 0 Z " fill="#2D909E" transform="translate(28,6)"/>
<path d="M0 0 C3.59905908 0.55550695 4.99909799 1.74887248 7.25 4.5625 C7.77078125 5.20316406 8.2915625 5.84382812 8.828125 6.50390625 C9.21484375 6.99761719 9.6015625 7.49132812 10 8 C10.78375 7.525625 11.5675 7.05125 12.375 6.5625 C13.88948678 5.66101977 15.4235897 4.78820515 17 4 C17.99 7.96 18.98 11.92 20 16 C19.34 16 18.68 16 18 16 C17.67 16.33 17.34 16.66 17 17 C16.34 17 15.68 17 15 17 C15 17.66 15 18.32 15 19 C12.13275314 18.42655063 11.1385485 18.1385485 9 16 C9.66 15.34 10.32 14.68 11 14 C5.44506076 12.97296252 5.44506076 12.97296252 0 14 C-0.89214652 11.32356043 -1.13540211 9.74615622 -1.125 7 C-1.12757813 6.319375 -1.13015625 5.63875 -1.1328125 4.9375 C-1 3 -1 3 0 0 Z " fill="#03FBFB" transform="translate(9,9)"/>
<path d="M0 0 C-0.1875 1.875 -0.1875 1.875 -1 4 C-5.57286231 6.59614693 -10.33228564 6.33215056 -15.4375 6.3125 C-16.27087891 6.32861328 -17.10425781 6.34472656 -17.96289062 6.36132812 C-23.08130611 6.3653743 -26.52470345 5.75794698 -31 3 C-30.67 2.01 -30.34 1.02 -30 0 C-30 0.66 -30 1.32 -30 2 C-25.84373632 3.00926479 -21.95634906 3.10239579 -17.6875 3.0625 C-16.43324219 3.05347656 -15.17898437 3.04445313 -13.88671875 3.03515625 C-12.93410156 3.02355469 -11.98148438 3.01195312 -11 3 C-16.445 2.505 -16.445 2.505 -22 2 C-22 1.67 -22 1.34 -22 1 C-17.545 0.505 -17.545 0.505 -13 0 C-13.99 -0.66 -14.98 -1.32 -16 -2 C-9.87436959 -3.10261347 -5.3049691 -3.53664607 0 0 Z " fill="#474700" transform="translate(39,42)"/>
<path d="M0 0 C2.90826185 1.34057023 3.89357117 2.4381271 6 5 C6.375 7.8125 6.375 7.8125 6 10 C5.34 10 4.68 10 4 10 C3.4225 9.21625 2.845 8.4325 2.25 7.625 C-0.46379878 4.45890142 -1.8307192 3.40875302 -6 3 C-9.49296386 4.98268645 -12.46470447 7.30738957 -13.69921875 11.2109375 C-13.79847656 11.80132812 -13.89773437 12.39171875 -14 13 C-16.0245738 11.06745228 -17.42105792 9.36841312 -19 7 C-13.74625232 -0.13008614 -8.66671431 -1.22559596 0 0 Z " fill="#61B2F0" transform="translate(29,1)"/>
<path d="M0 0 C2.0607749 2.48229704 3.57326473 5.11365537 5 8 C2.60385874 8.05425226 0.20896147 8.09379027 -2.1875 8.125 C-3.19780273 8.15013672 -3.19780273 8.15013672 -4.22851562 8.17578125 C-8.28807807 8.21538674 -11.34998815 7.80020002 -15 6 C-15 5.01 -15 4.02 -15 3 C-9.87891858 -0.09925187 -5.96818076 -2.25214368 0 0 Z " fill="#D6D645" transform="translate(24,38)"/>
<path d="M0 0 C1.9375 1.375 1.9375 1.375 2.625 3.625 C2.728125 4.5325 2.83125 5.44 2.9375 6.375 C3.22625 7.365 3.515 8.355 3.8125 9.375 C3.9375 12.375 3.9375 12.375 1.5 15.25 C0.654375 15.95125 -0.19125 16.6525 -1.0625 17.375 C-3.18260182 13.57648423 -4.67342748 10.77367782 -4.0625 6.375 C-3.4025 5.715 -2.7425 5.055 -2.0625 4.375 C-2.7225 3.055 -3.3825 1.735 -4.0625 0.375 C-2.0625 -0.625 -2.0625 -0.625 0 0 Z " fill="#446644" transform="translate(30.0625,6.625)"/>
<path d="M0 0 C2.475 0.495 2.475 0.495 5 1 C5 1.66 5 2.32 5 3 C9.62 3.66 14.24 4.32 19 5 C18.67 6.32 18.34 7.64 18 9 C19.65 9.66 21.3 10.32 23 11 C21 13 21 13 18.65234375 13.296875 C15.53895381 12.94839542 14.08971663 12.06995636 11.5625 10.25 C10.79035156 9.70214844 10.01820312 9.15429688 9.22265625 8.58984375 C8.48917969 8.06519531 7.75570313 7.54054688 7 7 C5.83592393 6.26670468 4.66966522 5.53684689 3.5 4.8125 C1 3 1 3 0 0 Z " fill="#5A5A00" transform="translate(9,27)"/>
<path d="M0 0 C0.66 0.66 1.32 1.32 2 2 C3.155 2.165 4.31 2.33 5.5 2.5 C9 3 9 3 11 5 C10.34 5.66 9.68 6.32 9 7 C10.32 7.99 11.64 8.98 13 10 C6.375 12.125 6.375 12.125 3 11 C3 10.34 3 9.68 3 9 C1.68 8.34 0.36 7.68 -1 7 C-0.67 4.69 -0.34 2.38 0 0 Z " fill="#6F576F" transform="translate(11,19)"/>
<path d="M0 0 C3.25543229 0.34879632 4.01873107 1.02133261 6.25 3.5625 C7.11625 4.7690625 7.11625 4.7690625 8 6 C6.55922954 9.36179774 4.75249979 11.59156268 2 14 C1.34 14 0.68 14 0 14 C-0.89214652 11.32356043 -1.13540211 9.74615622 -1.125 7 C-1.12757813 6.319375 -1.13015625 5.63875 -1.1328125 4.9375 C-1 3 -1 3 0 0 Z " fill="#3EC0EC" transform="translate(9,9)"/>
<path d="M0 0 C0.33 0.66 0.66 1.32 1 2 C5.65483353 3.43792877 10.60930574 3.22026516 15.4375 3.25 C16.68756836 3.2809375 16.68756836 3.2809375 17.96289062 3.3125 C23.0940276 3.34494988 26.51160474 2.77331739 31 0 C30.8125 1.875 30.8125 1.875 30 4 C25.42713769 6.59614693 20.66771436 6.33215056 15.5625 6.3125 C14.72912109 6.32861328 13.89574219 6.34472656 13.03710938 6.36132812 C7.91869389 6.3653743 4.47529655 5.75794698 0 3 C0 2.01 0 1.02 0 0 Z " fill="#242400" transform="translate(8,42)"/>
<path d="M0 0 C0.66 0 1.32 0 2 0 C0.60678155 4.87626457 -1.93858296 7.07577973 -6 10 C-8.375 10.8125 -8.375 10.8125 -10 11 C-10 10.34 -10 9.68 -10 9 C-13.3 9 -16.6 9 -20 9 C-20 8.67 -20 8.34 -20 8 C-18.80503906 7.85304688 -18.80503906 7.85304688 -17.5859375 7.703125 C-10.00725223 6.63362684 -5.46345909 5.46345909 0 0 Z " fill="#3B3B00" transform="translate(38,23)"/>
<path d="M0 0 C10.73575989 -0.8596249 10.73575989 -0.8596249 14.6875 2.1875 C17 5 17 5 17.375 7.8125 C17.25125 8.534375 17.1275 9.25625 17 10 C16.34 10 15.68 10 15 10 C14.4225 9.236875 13.845 8.47375 13.25 7.6875 C9.65201944 3.38991211 5.46461733 1.8036202 0 1 C0 0.67 0 0.34 0 0 Z " fill="#8896C1" transform="translate(18,1)"/>
<path d="M0 0 C1.2065625 0.0309375 1.2065625 0.0309375 2.4375 0.0625 C1.42235266 3.3335303 0.40498264 4.08108135 -2.625 5.8125 C-6.89222367 7.47797759 -11.04826728 7.33888159 -15.5625 7.0625 C-11.74552512 4.51785008 -7.91827041 2.51442347 -3.5625 1.0625 C-2.5625 0.0625 -2.5625 0.0625 0 0 Z " fill="#0A5E75" transform="translate(33.5625,23.9375)"/>
<path d="M0 0 C0.99 3.96 1.98 7.92 3 12 C2.34 12 1.68 12 1 12 C1 11.34 1 10.68 1 10 C0.1028125 9.8453125 0.1028125 9.8453125 -0.8125 9.6875 C-3.28243264 8.91123545 -4.32251235 7.92911079 -6 6 C-5.09643253 3.28929759 -3.37844266 0 0 0 Z " fill="#2AD4FF" transform="translate(26,13)"/>
<path d="M0 0 C0.75216797 0.21849609 0.75216797 0.21849609 1.51953125 0.44140625 C5.55051046 1.34917007 9.67038571 1.72050454 13.77539062 2.16210938 C15.5264208 2.37388589 17.26550288 2.67988171 19 3 C19.33 3.66 19.66 4.32 20 5 C17.60385874 5.05425226 15.20896147 5.09379027 12.8125 5.125 C11.80219727 5.15013672 11.80219727 5.15013672 10.77148438 5.17578125 C6.71192193 5.21538674 3.65001185 4.80020002 0 3 C0 2.01 0 1.02 0 0 Z " fill="#F9F95C" transform="translate(9,41)"/>
<path d="M0 0 C3.1875 0.875 3.1875 0.875 6 2 C5.67 2.66 5.34 3.32 5 4 C4.34 4 3.68 4 3 4 C3.99 5.65 4.98 7.3 6 9 C5.01 9 4.02 9 3 9 C3 8.34 3 7.68 3 7 C2.38125 6.9175 1.7625 6.835 1.125 6.75 C-1 6 -1 6 -2.25 3.9375 C-2.62125 2.9784375 -2.62125 2.9784375 -3 2 C-2.01 1.34 -1.02 0.68 0 0 Z " fill="#26E4E4" transform="translate(23,3)"/>
<path d="M0 0 C1.65 0.99 3.3 1.98 5 3 C4.25 4.9375 4.25 4.9375 3 7 C1.125 7.6875 1.125 7.6875 -1 8 C-3.39100534 8.57963766 -5.66001872 9.22000624 -8 10 C-8 9.34 -8 8.68 -8 8 C-7.34 8 -6.68 8 -6 8 C-6.33 7.01 -6.66 6.02 -7 5 C-6.34 5 -5.68 5 -5 5 C-5 5.66 -5 6.32 -5 7 C-1.88794071 5.01487051 -1.88794071 5.01487051 -0.25 1.8125 C-0.1675 1.214375 -0.085 0.61625 0 0 Z " fill="#6E4687" transform="translate(32,18)"/>
<path d="M0 0 C0.66 0.33 1.32 0.66 2 1 C1.35455571 4.48539917 -0.10134397 7.02819057 -2 10 C-3.5625 8.75 -3.5625 8.75 -5 7 C-4.9375 5 -4.9375 5 -4 3 C-1.9375 1.25 -1.9375 1.25 0 0 Z " fill="#067C10" transform="translate(32,14)"/>
<path d="M0 0 C1.98 0.495 1.98 0.495 4 1 C4.33 3.31 4.66 5.62 5 8 C4.38125 7.79375 3.7625 7.5875 3.125 7.375 C2.42375 7.25125 1.7225 7.1275 1 7 C0.34 7.66 -0.32 8.32 -1 9 C-0.67 6.03 -0.34 3.06 0 0 Z " fill="#23E223" transform="translate(9,9)"/>
<path d="M0 0 C2.475 0.495 2.475 0.495 5 1 C5 1.66 5 2.32 5 3 C5.928125 3.1546875 5.928125 3.1546875 6.875 3.3125 C9 4 9 4 11 7 C6.15833214 6.54961229 3.50331713 5.40027839 0 2 C0 1.34 0 0.68 0 0 Z " fill="#C5C526" transform="translate(9,27)"/>
<path d="M0 0 C2.45103548 0.98041419 3.76758786 1.6513818 5.25 3.875 C6 6 6 6 6 10 C5.34 10 4.68 10 4 10 C0 3.375 0 3.375 0 0 Z " fill="#CECE39" transform="translate(35,2)"/>
<path d="M0 0 C2.125 0.9375 2.125 0.9375 4 2 C4 3.32 4 4.64 4 6 C2.125 5.75 2.125 5.75 0 5 C-1.25 2.9375 -1.25 2.9375 -2 1 C-1.34 0.67 -0.68 0.34 0 0 Z " fill="#00FF00" transform="translate(28,6)"/>
<path d="M0 0 C-1 3 -1 3 -2.75 4.25 C-5.52724898 5.17574966 -7.21571665 4.77341204 -10 4 C-7.02096266 1.02096266 -4.19714671 0 0 0 Z " fill="#767600" transform="translate(38,41)"/>
<path d="M0 0 C0.99 0.66 1.98 1.32 3 2 C3 2.66 3 3.32 3 4 C2.34 4 1.68 4 1 4 C1 4.66 1 5.32 1 6 C-1.86724686 5.42655063 -2.8614515 5.1385485 -5 3 C-3.35 2.01 -1.7 1.02 0 0 Z " fill="#17F2F2" transform="translate(23,22)"/>
<path d="M0 0 C6.75 0.75 6.75 0.75 9 3 C7.35 3.66 5.7 4.32 4 5 C2.68 3.35 1.36 1.7 0 0 Z " fill="#108010" transform="translate(13,21)"/>
<path d="M0 0 C2.67927341 4.01891012 2.15601248 6.24161923 2 11 C0.4375 9.4375 0.4375 9.4375 -1 7 C-0.6875 3.25 -0.6875 3.25 0 0 Z " fill="#463980" transform="translate(36,9)"/>
</svg>
