<?xml version="1.0" encoding="UTF-8"?>
<svg version="1.1" xmlns="http://www.w3.org/2000/svg" width="32" height="32">
<path d="M0 0 C3.1114574 0.97650088 5.87496347 2.33822321 8.77148438 3.83422852 C9.84011719 4.38208008 10.90875 4.92993164 12.00976562 5.49438477 C12.81800781 5.9159082 13.62625 6.33743164 14.45898438 6.77172852 C15.38307231 10.71292405 15.4842958 13.83750188 14.45898438 17.77172852 C10.90487041 22.77713968 6.07839 26.78051129 1.45898438 30.77172852 C-3.16777219 29.37948262 -7.18787793 27.47651867 -11.41601562 25.14672852 C-12.5684375 24.51508789 -13.72085937 23.88344727 -14.90820312 23.23266602 C-16.21144531 22.50950195 -16.21144531 22.50950195 -17.54101562 21.77172852 C-18.09241603 18.08933275 -18.31120776 15.93368321 -16.21533203 12.77172852 C-14.34386415 10.66870178 -12.38988826 8.71528045 -10.35351562 6.77172852 C-9.67998047 6.07950195 -9.00644531 5.38727539 -8.3125 4.67407227 C-3.25244877 -0.2921829 -3.25244877 -0.2921829 0 0 Z " fill="#72136D" transform="translate(17.541015625,1.228271484375)"/>
<path d="M0 0 C0.34375 2.13671875 0.34375 2.13671875 0 5 C-1.78663019 7.1491769 -3.46395503 8.93903847 -5.5 10.8125 C-6.02464844 11.31458984 -6.54929687 11.81667969 -7.08984375 12.33398438 C-8.38222532 13.56762133 -9.68969599 14.78541625 -11 16 C-15.09795698 14.69886826 -18.97479684 13.18241122 -22.875 11.375 C-23.84179688 10.92898437 -24.80859375 10.48296875 -25.8046875 10.0234375 C-26.52914063 9.68570312 -27.25359375 9.34796875 -28 9 C-28 7.35 -28 5.7 -28 4 C-26.68 4.33 -25.36 4.66 -24 5 C-24 5.66 -24 6.32 -24 7 C-23.13375 7.28875 -22.2675 7.5775 -21.375 7.875 C-18.25 8.91666667 -15.125 9.95833333 -12 11 C-11.21753906 10.2059375 -10.43507813 9.411875 -9.62890625 8.59375 C-8.60690222 7.56236979 -7.58475966 6.53112684 -6.5625 5.5 C-6.04623047 4.97535156 -5.52996094 4.45070313 -4.99804688 3.91015625 C-1.11328125 0 -1.11328125 0 0 0 Z " fill="#EBEBEB" transform="translate(30,13)"/>
<path d="M0 0 C0.33984375 2.13671875 0.33984375 2.13671875 0 5 C-1.76493465 7.15455778 -3.41731869 8.9375114 -5.4375 10.8125 C-5.95376953 11.31458984 -6.47003906 11.81667969 -7.00195312 12.33398438 C-10.81760204 16 -10.81760204 16 -12 16 C-12.33984375 13.86328125 -12.33984375 13.86328125 -12 11 C-10.23506535 8.84544222 -8.58268131 7.0624886 -6.5625 5.1875 C-6.04623047 4.68541016 -5.52996094 4.18332031 -4.99804688 3.66601562 C-1.18239796 0 -1.18239796 0 0 0 Z " fill="#C0C0C0" transform="translate(30,13)"/>
<path d="M0 0 C2.4375 0.3125 2.4375 0.3125 4.4375 2.3125 C4.375 4.25 4.375 4.25 3.4375 6.3125 C1.125 8.1875 1.125 8.1875 -1.5625 9.3125 C-3.875 8.5 -3.875 8.5 -5.5625 7.3125 C-4.9025 6.6525 -4.2425 5.9925 -3.5625 5.3125 C-4.2225 4.6525 -4.8825 3.9925 -5.5625 3.3125 C-3.75137927 1.02476855 -2.95529457 0.36040178 0 0 Z " fill="#E2E200" transform="translate(18.5625,6.6875)"/>
<path d="M0 0 C0.33 0 0.66 0 1 0 C2.91819019 7.41496778 2.91819019 7.41496778 0.86376953 10.96142578 C-0.81380149 12.7967302 -2.55867899 14.43418846 -4.4375 16.0625 C-5.37432617 16.93165039 -5.37432617 16.93165039 -6.33007812 17.81835938 C-7.86500447 19.23611577 -9.42973291 20.62148873 -11 22 C-12.98 21.34 -14.96 20.68 -17 20 C-17 19.67 -17 19.34 -17 19 C-16.030625 18.855625 -15.06125 18.71125 -14.0625 18.5625 C-8.42282874 16.94456152 -4.38912781 12.62702749 -1 8 C-0.31616337 5.29959404 -0.53373455 3.79759273 -1 1 C-0.67 0.67 -0.34 0.34 0 0 Z " fill="#250225" transform="translate(30,10)"/>
<path d="M0 0 C1.32 0.33 2.64 0.66 4 1 C3.34 1 2.68 1 2 1 C2 2.65 2 4.3 2 6 C2.71542969 6.11214844 3.43085937 6.22429688 4.16796875 6.33984375 C7.19115998 7.04456005 9.56322688 8.13287798 12.3125 9.5625 C13.19550781 10.01753906 14.07851562 10.47257812 14.98828125 10.94140625 C15.65214844 11.29074219 16.31601562 11.64007813 17 12 C17 12.33 17 12.66 17 13 C12.10160332 13.34884724 9.34104063 12.46792622 5.125 10 C4.15820312 9.443125 3.19140625 8.88625 2.1953125 8.3125 C1.47085937 7.879375 0.74640625 7.44625 0 7 C0 4.69 0 2.38 0 0 Z " fill="#512051" transform="translate(0,16)"/>
<path d="M0 0 C1.32 0.33 2.64 0.66 4 1 C3.34 1.66 2.68 2.32 2 3 C2.33 3.66 2.66 4.32 3 5 C1.125 5.625 1.125 5.625 -1 6 C-1.66 5.34 -2.32 4.68 -3 4 C-2.01 3.67 -1.02 3.34 0 3 C0 2.01 0 1.02 0 0 Z " fill="#A6792C" transform="translate(16,10)"/>
</svg>
