<?xml version="1.0" encoding="UTF-8"?>
<svg version="1.1" xmlns="http://www.w3.org/2000/svg" width="48" height="48">
<path d="M0 0 C2.52685521 0.9548462 4.91492358 1.98738759 7.32226562 3.21435547 C8.20849609 3.66230469 9.09472656 4.11025391 10.0078125 4.57177734 C10.91982422 5.04035156 11.83183594 5.50892578 12.77148438 5.99169922 C13.70283203 6.46414062 14.63417969 6.93658203 15.59375 7.42333984 C17.88497206 8.58657566 20.17319678 9.75533054 22.45898438 10.92919922 C23.88981512 16.17557863 24.4131096 20.8103192 22.45898438 25.92919922 C19.61291965 29.99563879 16.29787198 33.44743374 12.77148438 36.92919922 C11.86108398 37.83186523 10.95068359 38.73453125 10.01269531 39.66455078 C4.96783171 44.37980442 4.96783171 44.37980442 2.45898438 45.92919922 C-1.37153163 45.75688835 -4.41743282 44.17286519 -7.80664062 42.46044922 C-9.26457031 41.72761719 -9.26457031 41.72761719 -10.75195312 40.97998047 C-11.75484375 40.46822266 -12.75773438 39.95646484 -13.79101562 39.42919922 C-15.31855469 38.6615625 -15.31855469 38.6615625 -16.87695312 37.87841797 C-24.38674507 34.08346977 -24.38674507 34.08346977 -25.54101562 32.92919922 C-26.47639978 29.39185635 -26.41911422 26.47849833 -25.54101562 22.92919922 C-22.76100236 18.92725949 -19.52119014 15.63379925 -15.98901367 12.29321289 C-14.34606759 10.73463364 -12.75061879 9.13689871 -11.15625 7.52880859 C-3.37490686 -0.09403564 -3.37490686 -0.09403564 0 0 Z " fill="#770E73" transform="translate(25.541015625,1.07080078125)"/>
<path d="M0 0 C0.68615318 4.29956415 0.88724311 6.69488182 -1.60693359 10.36376953 C-3.87410034 12.87856247 -6.23553619 15.22774648 -8.6875 17.5625 C-9.50412109 18.39330078 -10.32074219 19.22410156 -11.16210938 20.08007812 C-15.74316266 24.56468819 -15.74316266 24.56468819 -18 26 C-21.72856332 25.79565459 -24.75039862 24.32956141 -28.08203125 22.71484375 C-29.47905273 22.04291992 -29.47905273 22.04291992 -30.90429688 21.35742188 C-31.86400391 20.88884766 -32.82371094 20.42027344 -33.8125 19.9375 C-34.79154297 19.46505859 -35.77058594 18.99261719 -36.77929688 18.50585938 C-39.18870167 17.34229316 -41.59544007 16.17353704 -44 15 C-44 12.36 -44 9.72 -44 7 C-43.34 7 -42.68 7 -42 7 C-42 7.66 -42 8.32 -42 9 C-41.15695313 9.25394531 -40.31390625 9.50789063 -39.4453125 9.76953125 C-35.07682262 11.32970621 -31.09017095 13.4717427 -27.03515625 15.69726562 C-23.72180733 17.50623674 -23.72180733 17.50623674 -20.05200195 17.82373047 C-17.37611682 16.749556 -15.93007844 15.25249245 -13.92578125 13.18359375 C-13.17619141 12.41982422 -12.42660156 11.65605469 -11.65429688 10.86914062 C-10.88150391 10.06669922 -10.10871094 9.26425781 -9.3125 8.4375 C-7.76898352 6.85086144 -6.22352034 5.2661135 -4.67578125 3.68359375 C-3.6535144 2.62483032 -3.6535144 2.62483032 -2.6105957 1.54467773 C-1 0 -1 0 0 0 Z " fill="#F6F6F6" transform="translate(46,18)"/>
<path d="M0 0 C0.33 0 0.66 0 1 0 C2.33401358 5.37522122 3.21489826 9.95518693 0.28808594 14.88134766 C-2.21553904 17.71084291 -4.83497441 20.26550133 -7.625 22.8125 C-8.54152344 23.72064453 -9.45804688 24.62878906 -10.40234375 25.56445312 C-15.43770186 30.37755592 -15.43770186 30.37755592 -18 32 C-21.83012308 31.83805216 -24.87750114 30.24311831 -28.265625 28.53125 C-29.23757812 28.04269531 -30.20953125 27.55414063 -31.2109375 27.05078125 C-32.21382812 26.53902344 -33.21671875 26.02726562 -34.25 25.5 C-35.77753906 24.73236328 -35.77753906 24.73236328 -37.3359375 23.94921875 C-44.84572945 20.15427055 -44.84572945 20.15427055 -46 19 C-46.07205511 17.31391034 -46.08386068 15.62499341 -46.0625 13.9375 C-46.05347656 13.01839844 -46.04445312 12.09929688 -46.03515625 11.15234375 C-46.02355469 10.44207031 -46.01195312 9.73179688 -46 9 C-44.68 9.33 -43.36 9.66 -42 10 C-42.66 10 -43.32 10 -44 10 C-44 12.64 -44 15.28 -44 18 C-43.36191406 18.06960937 -42.72382812 18.13921875 -42.06640625 18.2109375 C-36.83362938 19.55746098 -32.24128722 22.38151003 -27.50585938 24.9375 C-26.72919922 25.34226562 -25.95253906 25.74703125 -25.15234375 26.1640625 C-24.45101318 26.53998535 -23.74968262 26.9159082 -23.02709961 27.30322266 C-20.50301589 28.17082894 -19.45623869 28.0124238 -17 27 C-14.00919048 24.78575288 -11.41489047 22.15441202 -8.75 19.5625 C-8.00492188 18.88767578 -7.25984375 18.21285156 -6.4921875 17.51757812 C-2.36827169 13.54697563 -2.36827169 13.54697563 -0.55273438 8.26904297 C-0.53788267 5.55632587 -0.53788267 5.55632587 -0.82519531 2.98413086 C-0.88288086 2.32936768 -0.94056641 1.67460449 -1 1 C-0.67 0.67 -0.34 0.34 0 0 Z " fill="#4E1F4E" transform="translate(46,15)"/>
<path d="M0 0 C0.71061345 4.33325126 0.92753013 6.69717649 -1.67138672 10.34765625 C-4.01152586 12.83479035 -6.43285889 15.17871752 -8.9375 17.5 C-10.21270508 18.73363281 -10.21270508 18.73363281 -11.51367188 19.9921875 C-17.77596813 26 -17.77596813 26 -19 26 C-19.71061345 21.66674874 -19.92753013 19.30282351 -17.32861328 15.65234375 C-14.98847414 13.16520965 -12.56714111 10.82128248 -10.0625 8.5 C-9.21236328 7.67757813 -8.36222656 6.85515625 -7.48632812 6.0078125 C-1.22403187 0 -1.22403187 0 0 0 Z " fill="#C0C0C0" transform="translate(46,18)"/>
<path d="M0 0 C2 1.1875 2 1.1875 3 3 C3.1875 5.375 3.1875 5.375 2 8 C-1.3946949 10.96149717 -4.41766528 13.09889592 -9 12.8125 C-9.66 12.544375 -10.32 12.27625 -11 12 C-8.22719294 8.91910327 -5.93673644 7.31224548 -2 6 C-2 5.34 -2 4.68 -2 4 C-2.7425 4.165 -3.485 4.33 -4.25 4.5 C-7 5 -7 5 -11 5 C-8.5075559 -0.51898335 -5.93599766 -0.41656124 0 0 Z " fill="#DDDD05" transform="translate(32,10)"/>
<path d="M0 0 C0.33 0 0.66 0 1 0 C1.99862101 4.10785301 2.46598936 7.78313754 2 12 C-0.52164751 16.11407625 -3.83489025 19.07645371 -7.4375 22.25 C-8.34822266 23.10207031 -9.25894531 23.95414063 -10.19726562 24.83203125 C-12.43831125 26.92054497 -14.70360814 28.97277877 -17 31 C-17.66 30.34 -18.32 29.68 -19 29 C-18.45472656 28.50709473 -17.90945312 28.01418945 -17.34765625 27.50634766 C-14.87199326 25.23963486 -12.43663639 22.93358493 -10 20.625 C-9.14148437 19.85027344 -8.28296875 19.07554688 -7.3984375 18.27734375 C-2.73120756 13.95330454 -2.73120756 13.95330454 -0.47265625 8.20214844 C-0.49703525 5.75815384 -0.72756593 3.42454156 -1 1 C-0.67 0.67 -0.34 0.34 0 0 Z " fill="#220022" transform="translate(46,15)"/>
<path d="M0 0 C2.6875 0.875 2.6875 0.875 5 2 C2.33333333 3.33333333 -0.33333333 4.66666667 -3 6 C-3 4.68 -3 3.36 -3 2 C-2.01 1.34 -1.02 0.68 0 0 Z " fill="#BFBF00" transform="translate(25,10)"/>
</svg>
