<?xml version="1.0" encoding="UTF-8"?>
<svg version="1.1" xmlns="http://www.w3.org/2000/svg" width="32" height="32">
<path d="M0 0 C2.59157192 1.20227563 3.37290331 2.90655501 4.35546875 5.51953125 C5.7915923 11.80517346 5.93527725 19.03703226 3.64453125 25.12890625 C1.89453125 27.87890625 1.89453125 27.87890625 0.03125 28.7890625 C-2.10546875 28.87890625 -2.10546875 28.87890625 -4.0703125 27.296875 C-4.72128906 26.56082031 -5.37226563 25.82476563 -6.04296875 25.06640625 C-8.89723713 21.86031951 -11.04479011 20.28743268 -15.10546875 18.87890625 C-16.10546875 17.87890625 -16.10546875 17.87890625 -16.29296875 14.44140625 C-16.10546875 10.87890625 -16.10546875 10.87890625 -14.10546875 8.87890625 C-13.38359375 8.65203125 -12.66171875 8.42515625 -11.91796875 8.19140625 C-8.36474798 6.53323656 -6.39790405 4.17665501 -3.8515625 1.2421875 C-2.10546875 -0.12109375 -2.10546875 -0.12109375 0 0 Z " fill="#D6D655" transform="translate(16.10546875,1.12109375)"/>
<path d="M0 0 C0.99 0.33 1.98 0.66 3 1 C5.86068149 7.51546519 6.2573495 15.53749946 4.32421875 22.3984375 C3.5 24.3125 3.5 24.3125 2 27 C1.01 26.67 0.02 26.34 -1 26 C-2.25 19.375 -2.25 19.375 0 16 C0.25030977 13.41619823 0.25030977 13.41619823 0 11 C-0.33 10.67 -0.66 10.34 -1 10 C-1.0979057 8.50261876 -1.12974864 7.00057108 -1.125 5.5 C-1.12757812 4.6853125 -1.13015625 3.870625 -1.1328125 3.03125 C-1 1 -1 1 0 0 Z " fill="#DEDEDE" transform="translate(16,2)"/>
<path d="M0 0 C0.99 0.33 1.98 0.66 3 1 C2.67 1.33 2.34 1.66 2 2 C1.9020943 3.49738124 1.87025136 4.99942892 1.875 6.5 C1.87242188 7.3146875 1.86984375 8.129375 1.8671875 8.96875 C1.7754822 10.99530377 1.7754822 10.99530377 3 12 C2.62207006 15.27539283 2.14832522 18.43366734 1.3125 21.625 C0.92009417 24.60728431 1.70327211 26.33026611 3 29 C0.62051228 28.82374165 -0.70225849 28.30280227 -2.37890625 26.59765625 C-3.62115486 25.09350908 -4.81376056 23.54870149 -6 22 C-5.01 21.67 -4.02 21.34 -3 21 C-2.93941406 20.14277344 -2.87882813 19.28554688 -2.81640625 18.40234375 C-1.58394161 1.58394161 -1.58394161 1.58394161 0 0 Z " fill="#484818" transform="translate(14,1)"/>
<path d="M0 0 C0 4.29 0 8.58 0 13 C-1.32 13.33 -2.64 13.66 -4 14 C-4.50367757 12.54293274 -5.00282556 11.08429904 -5.5 9.625 C-5.7784375 8.81289063 -6.056875 8.00078125 -6.34375 7.1640625 C-7 5 -7 5 -7 3 C-1.125 0 -1.125 0 0 0 Z " fill="#F6F6C2" transform="translate(12,9)"/>
<path d="M0 0 C0.99 0.33 1.98 0.66 3 1 C2.67 1.33 2.34 1.66 2 2 C1.9020943 3.49738124 1.87025136 4.99942892 1.875 6.5 C1.87242188 7.3146875 1.86984375 8.129375 1.8671875 8.96875 C1.7754822 10.99530377 1.7754822 10.99530377 3 12 C3.04063832 13.66617115 3.042721 15.33388095 3 17 C1.68 17 0.36 17 -1 17 C-1.02684679 14.35409986 -1.04676357 11.70846904 -1.0625 9.0625 C-1.07087891 8.30775391 -1.07925781 7.55300781 -1.08789062 6.77539062 C-1.09652441 4.85005687 -1.05224333 2.92464419 -1 1 C-0.67 0.67 -0.34 0.34 0 0 Z " fill="#6F6F67" transform="translate(14,1)"/>
<path d="M0 0 C0.66 0 1.32 0 2 0 C2.53229326 1.26607607 3.05044544 2.53810412 3.5625 3.8125 C3.85253906 4.52019531 4.14257812 5.22789063 4.44140625 5.95703125 C5 8 5 8 4 11 C2.02 10.01 0.04 9.02 -2 8 C-1.67 7.4225 -1.34 6.845 -1 6.25 C0.27075898 3.80116138 0.27075898 3.80116138 0 0 Z " fill="#ACAC06" transform="translate(3,12)"/>
<path d="M0 0 C2.88437779 1.29299694 4.87219421 2.65941363 7 5 C6.67 5.99 6.34 6.98 6 8 C5.01 8 4.02 8 3 8 C2.01 5.36 1.02 2.72 0 0 Z " fill="#E0E05E" transform="translate(5,15)"/>
<path d="M0 0 C1.32 0.33 2.64 0.66 4 1 C4 2.65 4 4.3 4 6 C2.68 6.33 1.36 6.66 0 7 C0 4.69 0 2.38 0 0 Z " fill="#E4E497" transform="translate(0,12)"/>
<path d="M0 0 C2.97 0 5.94 0 9 0 C9 0.33 9 0.66 9 1 C6.03 1 3.06 1 0 1 C0 0.67 0 0.34 0 0 Z " fill="#808080" transform="translate(23,15)"/>
<path d="M0 0 C3 1 3 1 3 1 Z " fill="#808080" transform="translate(27,22)"/>
<path d="M0 0 C3 1 3 1 3 1 Z " fill="#808080" transform="translate(24,21)"/>
<path d="M0 0 C3 1 3 1 3 1 Z " fill="#808080" transform="translate(24,9)"/>
<path d="M0 0 C3 1 3 1 3 1 Z " fill="#808080" transform="translate(27,8)"/>
<path d="M0 0 C2 1 2 1 2 1 Z " fill="#808080" transform="translate(25,28)"/>
<path d="M0 0 C2 1 2 1 2 1 Z " fill="#808080" transform="translate(23,27)"/>
<path d="M0 0 C2 1 2 1 2 1 Z " fill="#808080" transform="translate(21,26)"/>
<path d="M0 0 C2 1 2 1 2 1 Z " fill="#808080" transform="translate(21,4)"/>
<path d="M0 0 C2 1 2 1 2 1 Z " fill="#808080" transform="translate(23,3)"/>
<path d="M0 0 C2 1 2 1 2 1 Z " fill="#808080" transform="translate(25,2)"/>
<path d="" fill="#808080" transform="translate(0,0)"/>
<path d="" fill="#808080" transform="translate(0,0)"/>
<path d="" fill="#808080" transform="translate(0,0)"/>
<path d="" fill="#808080" transform="translate(0,0)"/>
<path d="" fill="#808080" transform="translate(0,0)"/>
<path d="" fill="#808080" transform="translate(0,0)"/>
</svg>
