<?xml version="1.0" encoding="UTF-8"?>
<svg version="1.1" xmlns="http://www.w3.org/2000/svg" width="48" height="48">
<path d="M0 0 C3.3 0 6.6 0 10 0 C10.33 1.32 10.66 2.64 11 4 C12.09054687 3.93039063 12.09054687 3.93039063 13.203125 3.859375 C20.95922946 3.58095074 27.99247932 4.44270173 35 8 C35.495 9.485 35.495 9.485 36 11 C38.475 11.495 38.475 11.495 41 12 C37.48748051 15.96869085 33.01436492 17.57060024 28 19 C23.84330291 18.93072172 21.50473819 18.25731751 17.8125 16.375 C15.17047759 14.77365396 15.17047759 14.77365396 12.6875 15.25 C11.00224362 15.87809669 11.00224362 15.87809669 10 17 C6.66381769 17.14257189 3.34024394 17.04228157 0 17 C0 11.39 0 5.78 0 0 Z " fill="#DED6CE" transform="translate(0,29)"/>
<path d="M0 0 C7.71484375 -0.09765625 7.71484375 -0.09765625 10 0 C11 1 11 1 11.09765625 3.72265625 C11.08605469 4.82480469 11.07445312 5.92695312 11.0625 7.0625 C11.05347656 8.16722656 11.04445313 9.27195312 11.03515625 10.41015625 C11.02355469 11.26480469 11.01195312 12.11945312 11 13 C12.32 13.33 13.64 13.66 15 14 C10.18750826 17.8499934 5.8948342 17.23579337 0 17 C0 11.39 0 5.78 0 0 Z " fill="#3233B5" transform="translate(0,29)"/>
<path d="M0 0 C3.96 0 7.92 0 12 0 C12 0.33 12 0.66 12 1 C9.69 1.33 7.38 1.66 5 2 C5.969375 2.763125 6.93875 3.52625 7.9375 4.3125 C10.42086332 6.26748815 10.9521672 6.85650159 12 10 C12.33 10.66 12.66 11.32 13 12 C15.32156597 12.40729228 17.6568787 12.74438677 20 13 C17 15 17 15 13.6875 14.8125 C10.03716594 14.0081891 7.24698501 12.82147939 4 11 C4 10.34 4 9.68 4 9 C2.68 9 1.36 9 0 9 C0 6.03 0 3.06 0 0 Z " fill="#968382" transform="translate(11,33)"/>
<path d="M0 0 C2.31 0.33 4.62 0.66 7 1 C7.33 1.99 7.66 2.98 8 4 C9.65 4.33 11.3 4.66 13 5 C10.88229834 7.32947183 8.96664412 8.88750845 6 10 C5.01 9.67 4.02 9.34 3 9 C3.33 8.01 3.66 7.02 4 6 C2.700625 5.87625 1.40125 5.7525 0.0625 5.625 C-2.15234375 5.4140625 -2.15234375 5.4140625 -4 5 C-4.33 4.34 -4.66 3.68 -5 3 C-2.36 3 0.28 3 3 3 C3 2.34 3 1.68 3 1 C2.01 0.67 1.02 0.34 0 0 Z " fill="#6B6260" transform="translate(28,36)"/>
<path d="M0 0 C3.3 0 6.6 0 10 0 C10.33 1.32 10.66 2.64 11 4 C10.01 5.485 10.01 5.485 9 7 C6.2572492 7.47114738 3.80441103 7.17805784 1 7 C0 6 0 6 -0.0625 2.9375 C-0.041875 1.968125 -0.02125 0.99875 0 0 Z " fill="#335ACC" transform="translate(0,29)"/>
<path d="M0 0 C4.44971985 1.39848338 6.93101587 3.51628828 10 7 C10.28875 7.7425 10.5775 8.485 10.875 9.25 C11.24625 9.8275 11.6175 10.405 12 11 C15.56206661 11.81870185 15.56206661 11.81870185 19 12 C15.1496895 14.56687367 13.41430237 13.83288724 9 13 C9 12.01 9 11.02 9 10 C8.34 10 7.68 10 7 10 C2 4.52380952 2 4.52380952 2 2 C1.34 2 0.68 2 0 2 C0 1.34 0 0.68 0 0 Z " fill="#A19B88" transform="translate(12,34)"/>
<path d="M0 0 C0.33 0 0.66 0 1 0 C1 1.65 1 3.3 1 5 C2.32 5.33 3.64 5.66 5 6 C0.27805833 9.77755334 -4.25928072 9.30096975 -10 9 C-9.67 7.68 -9.34 6.36 -9 5 C-6.03 5 -3.06 5 0 5 C0 3.35 0 1.7 0 0 Z " fill="#000058" transform="translate(10,37)"/>
<path d="M0 0 C4.29 0 8.58 0 13 0 C13 0.33 13 0.66 13 1 C11.35 1.33 9.7 1.66 8 2 C8 3.32 8 4.64 8 6 C5 5 5 5 3 2 C2.01 1.34 1.02 0.68 0 0 Z " fill="#DCCABD" transform="translate(13,34)"/>
<path d="M0 0 C3.3 0 6.6 0 10 0 C9.67 0.99 9.34 1.98 9 3 C6.03 3 3.06 3 0 3 C0 2.01 0 1.02 0 0 Z " fill="#5184CC" transform="translate(0,29)"/>
<path d="M0 0 C2.31 0.33 4.62 0.66 7 1 C7.33 1.99 7.66 2.98 8 4 C5.36 4 2.72 4 0 4 C0.99 3.67 1.98 3.34 3 3 C3 2.34 3 1.68 3 1 C2.01 0.67 1.02 0.34 0 0 Z " fill="#978F8E" transform="translate(28,36)"/>
<path d="M0 0 C2.64 0 5.28 0 8 0 C8 0.66 8 1.32 8 2 C1.25 3 1.25 3 -1 3 C-0.67 2.01 -0.34 1.02 0 0 Z " fill="#002894" transform="translate(2,40)"/>
<path d="M0 0 C0.99 0.33 1.98 0.66 3 1 C2.67 2.32 2.34 3.64 2 5 C0.35 5 -1.3 5 -3 5 C-2.67 4.01 -2.34 3.02 -2 2 C-1.34 2 -0.68 2 0 2 C0 1.34 0 0.68 0 0 Z " fill="#E7D1C5" transform="translate(29,41)"/>
</svg>
